<svg width="10" height="15" viewBox="0 0 10 15" fill="none" xmlns="http://www.w3.org/2000/svg">
<path d="M5 14.3333C3.9981 14.3332 3.01934 14.0322 2.19061 13.4691C1.36187 12.9061 0.721403 12.1071 0.352232 11.1757C-0.0169379 10.2443 -0.0977793 9.22345 0.12019 8.24555C0.338159 7.26765 0.844886 6.37779 1.57467 5.69133C2.46934 4.84933 4.66667 3.33333 4.33333 0C8.33333 2.66667 10.3333 5.33333 6.33334 9.33333C7 9.33333 8 9.33333 9.66667 7.68667C9.84667 8.202 10 8.756 10 9.33333C10 10.6594 9.47322 11.9312 8.53554 12.8689C7.59785 13.8065 6.32608 14.3333 5 14.3333Z" fill="black"/>
</svg>
